<svg xmlns:dc="http://purl.org/dc/elements/1.1/" xmlns:cc="http://creativecommons.org/ns#" xmlns:rdf="http://www.w3.org/1999/02/22-rdf-syntax-ns#" xmlns:svg="http://www.w3.org/2000/svg" xmlns="http://www.w3.org/2000/svg" xmlns:sodipodi="http://sodipodi.sourceforge.net/DTD/sodipodi-0.dtd" xmlns:inkscape="http://www.inkscape.org/namespaces/inkscape" id="svg2" xml:space="preserve" width="708.2973" height="330.84668" viewBox="0 0 708.2973 330.84668" sodipodi:docname="5 - Logo-DISNEY.ai"><metadata></metadata><defs id="defs6"><clipPath clipPathUnits="userSpaceOnUse" id="clipPath18"><path d="M 0,248.135 H 531.223 V 0 H 0 Z" id="path16"></path></clipPath></defs><g id="g10" inkscape:groupmode="layer" inkscape:label="5 - Logo-DISNEY" transform="matrix(1.3333333,0,0,-1.3333333,0,330.84667)"><g id="g12"><g id="g14" clip-path="url(#clipPath18)"><g id="g20" transform="translate(512.8513,134.6831)"><path d="m 0,0 c 0,0 -0.522,-1.548 -0.908,-2.759 -0.673,-2.094 -2.137,-7.738 -2.482,-9.495 -0.513,-2.599 -1.968,-9.42 -2.043,-9.571 -0.101,-0.194 -0.169,-0.252 -0.421,-0.413 -0.597,-0.353 -0.832,-0.235 -1.556,0.152 -0.95,0.496 -1.774,1.009 -2.489,1.934 -1.422,1.851 -1.085,5.324 -0.799,7.368 0.975,7.132 1.951,10.269 4.676,17.376 0.042,0.118 0.042,0.143 -0.008,0.252 -0.85,1.808 -1.304,3.978 -1.304,5.736 0.008,5.576 3.204,11.076 6.787,15.5 0.269,0.337 2.035,2.448 2.834,2.406 0.808,-0.034 0.934,-0.976 0.816,-1.75 -0.412,-2.582 -2.22,-5.197 -3.456,-7.367 -1.388,-2.422 -1.691,-3.415 -2.372,-5.635 -0.101,-0.354 -0.379,-1.977 -0.37,-2.187 0.033,-0.588 0.159,-1.346 0.159,-1.346 0,0 2.263,3.163 3.752,5.122 0.824,1.069 1.404,1.784 2.085,2.549 0.69,0.782 3.339,3.532 4.105,4.256 1.606,1.539 2.321,2.17 4.053,3.069 1.38,0.724 2.608,0.892 3.953,0 2.12,-1.396 3.053,-4.348 3.289,-6.737 C 18.587,15.592 17.998,12.371 16.737,9.916 15.24,7.005 13.187,4.895 10.412,3.053 7.561,1.169 4.23,-0.118 0.959,-0.042 0.521,-0.026 0,0 0,0 M 13.23,20.42 C 11.556,19.024 9.411,16.181 8.385,14.701 7.014,12.75 5.727,10.504 4.491,8.764 4.222,8.377 3.431,6.989 3.448,6.938 3.507,6.838 4.306,6.871 5.13,7.005 c 1.758,0.303 4.138,1.523 5.417,2.549 1.934,1.556 3.297,3.684 3.927,6.19 0.286,1.135 0.429,3.524 -0.378,4.575 -0.16,0.211 -0.564,0.37 -0.866,0.101 M -27.612,2.472 c -0.193,0.143 -0.513,0.471 -0.756,0.732 -0.034,0.042 -0.69,1.026 -0.825,1.329 -0.109,0.26 -0.193,0.454 -0.277,0.664 -0.597,1.548 -0.581,3.07 -0.261,4.735 0.32,1.548 0.606,1.615 1.405,3.735 0.042,0.117 0.075,0.227 0.092,0.353 0.025,0.294 -0.446,2.245 -0.471,2.876 -0.034,0.967 0.715,1.649 1.968,1.775 0.109,0.017 0.194,0.017 0.278,0.034 0.496,0.117 0.816,1.076 1.093,1.842 0.37,1.076 0.967,2.716 0.967,2.716 0,0 -1.581,0.362 -2.422,0.681 -0.942,0.354 -1.648,0.816 -2.086,1.683 -0.504,1.009 -0.168,1.572 0.883,1.909 0.387,0.117 3.457,0.706 4.424,0.849 1.211,0.168 2.338,0.319 3.49,0.463 1.001,0.125 5.585,0.656 7.04,0.614 2.22,-0.059 3.667,-0.976 4.962,-2.86 0.707,-1.009 1.178,-2.204 0.126,-2.851 -1.623,-0.984 -6.863,-1.051 -7.83,-1.06 -1.539,-0.025 -3.65,0 -3.65,0 l -1.068,-3.566 c 0,0 3.759,0.034 5.871,0.05 0.513,0 1.026,-0.025 1.312,-0.092 1.085,-0.244 1.455,-1.068 1.505,-2.254 0.05,-1.404 -0.21,-2.052 -1.329,-2.229 -0.572,-0.1 -7.031,-0.134 -7.906,-0.235 -0.546,-0.068 -1.127,-0.152 -1.127,-0.152 0,0 -0.462,-1.219 -0.866,-2.447 -0.412,-1.279 -0.765,-2.582 -0.765,-2.582 0,0 0.336,-0.017 0.605,-0.017 0.454,0 0.909,0.059 1.27,0.126 1.977,0.354 4.904,0.791 7.309,1.169 1.287,0.202 1.943,0.303 2.615,-0.555 0.589,-0.757 0.901,-1.396 0.943,-2.304 0.033,-0.867 -0.623,-1.438 -1.43,-2.052 -2.532,-1.943 -6.88,-4.054 -10.118,-4.416 -1.497,-0.168 -1.859,0 -3.162,0.345 -0.253,0.067 -1.161,0.488 -1.153,0.53 0,0 -0.487,0.328 -0.656,0.462 M -52.818,2.035 c -1.833,0.665 -2.237,3.625 -2.329,5.114 -0.286,4.861 1.001,11.631 2.624,16.181 0.471,1.304 1.144,3.423 2.59,3.297 1.001,-0.084 1.716,-0.85 2.271,-1.64 1.438,-2.018 3.322,-4.768 4.575,-6.669 1.397,-2.137 2.734,-4.29 4.054,-6.241 0.16,-0.235 0.311,-0.462 0.496,-0.606 0.227,-0.201 0.454,-0.201 0.547,-0.025 0.05,0.076 -0.042,2.523 -0.109,3.02 -0.093,0.773 -0.143,1.412 -0.227,2.094 -0.253,1.968 -0.875,4.726 -1.363,6.602 -0.547,2.094 -1.211,4.272 -1.699,6.291 -0.151,0.656 -0.302,1.321 -0.294,1.951 0,0.909 0.58,1.405 1.53,1.068 1.851,-0.656 4.315,-4.693 5.038,-6.097 0.236,-0.471 1.212,-2.877 1.43,-3.558 0.766,-2.304 1.237,-4.499 1.447,-7.014 0.202,-2.456 0.042,-6.022 -1.001,-8.436 -0.379,-0.891 -1.161,-2.085 -1.817,-2.683 -1.009,-0.942 -3.044,-1.69 -4.44,-0.891 -1.531,0.875 -4.038,5.223 -4.466,5.971 -1.464,2.549 -3.97,7.528 -4.357,8.082 -0.093,0.127 -0.193,0.244 -0.395,0.303 -0.143,0.042 -0.202,-0.26 -0.244,-0.462 -0.244,-1.455 -0.421,-8.242 -0.429,-8.419 -0.034,-1.144 -0.093,-3.953 -0.429,-5.324 -0.21,-0.899 -0.421,-1.64 -1.253,-2.018 -0.589,-0.261 -1.035,-0.151 -1.75,0.109 m -14.129,16.947 c 0.126,-0.017 0.151,-0.025 0.278,-0.042 2.068,-0.286 4.087,-0.656 5.634,-1.346 1.447,-0.639 2.28,-1.438 3.053,-2.876 1.17,-2.17 1.245,-5.215 0.194,-7.519 -0.791,-1.707 -2.523,-3.145 -4.113,-3.919 -1.64,-0.791 -3.263,-1.169 -5.113,-1.38 -3.255,-0.353 -6.771,0.311 -9.689,1.733 -1.733,0.841 -3.844,2.296 -4.903,4.163 -0.791,1.388 -0.766,3.171 0.193,4.475 1.514,2.077 4.769,2.531 7.216,2.447 1.884,-0.068 5.24,-0.648 7.014,-1.278 0.497,-0.177 2.305,-0.883 2.633,-1.203 0.219,-0.227 0.361,-0.555 0.261,-0.866 -0.404,-1.245 -3.424,-1.893 -4.29,-2.019 -2.329,-0.362 -3.541,0.521 -6.19,1.565 -0.656,0.26 -1.531,0.546 -2.203,0.605 -1.203,0.118 -2.65,-0.218 -2.877,-1.531 -0.126,-0.681 0.673,-1.303 1.279,-1.572 1.421,-0.623 2.582,-0.833 3.978,-0.85 4.129,-0.067 8.772,0.614 12.144,3.003 0.463,0.328 0.917,0.815 0.926,1.421 0,0.084 -0.11,0.731 -0.32,0.807 -0.034,0.009 -0.059,-0.008 -0.092,0 -0.076,0.017 -0.202,0.236 -0.32,0.371 -0.236,0.302 -1.22,0.723 -1.405,0.798 -2.279,0.959 -6.484,1.413 -8.654,1.598 -2.279,0.194 -5.854,0.497 -6.712,0.614 -0.883,0.127 -1.841,0.312 -2.615,0.648 -0.757,0.345 -1.514,1.127 -1.733,1.985 -0.395,1.556 0.101,3.456 0.968,4.693 2.253,3.246 7.535,4.482 11.497,4.971 3.818,0.47 10.008,0.47 13.759,-1.523 0.58,-0.311 0.875,-0.597 0.748,-1.219 -0.235,-1.161 -1.11,-1.918 -2.169,-2.246 -1.11,-0.345 -3.415,-0.488 -4.424,-0.547 -4.533,-0.26 -10.009,-0.126 -14.315,-1.303 -0.336,-0.101 -0.925,-0.253 -1.11,-0.463 -0.673,-0.732 1.253,-0.942 1.665,-1.034 0.118,-0.017 0.152,-0.026 0.278,-0.042 l 9.529,-1.119 m -29.083,1.262 c 0.143,-1.354 -0.202,-3.903 -0.261,-4.248 -0.118,-0.765 -0.707,-2.556 -0.791,-2.775 -0.479,-1.094 -0.942,-1.976 -1.438,-2.868 -0.849,-1.522 -2.851,-3.936 -4.045,-4.962 -4.441,-3.844 -11.312,-6.031 -17.216,-6.745 -3.995,-0.48 -8.596,-0.412 -12.835,0.37 -1.455,0.269 -3.624,0.765 -3.624,0.765 0,0 0.008,-0.866 -0.068,-1.48 -0.034,-0.278 -0.244,-1.009 -0.361,-1.245 -0.303,-0.639 -0.816,-0.967 -1.548,-1.11 -0.883,-0.168 -1.833,-0.219 -2.649,0.126 -1.346,0.572 -1.834,1.834 -2.069,3.28 -0.194,1.169 -0.387,3.196 -0.387,3.196 0,0 -1.009,0.471 -1.85,0.892 -2.583,1.278 -5.03,2.809 -7.175,4.398 -0.597,0.437 -3.145,2.582 -3.717,3.121 -1.573,1.488 -2.994,2.985 -4.079,4.903 -0.841,1.497 -1.076,2.826 -0.446,4.407 0.883,2.204 4.054,3.869 6.224,4.827 1.59,0.698 6.535,2.313 8.587,2.607 0.976,0.144 2.481,0.413 2.574,0.472 0.033,0.033 0.067,0.05 0.092,0.084 0.051,0.067 0.126,2.262 0.109,3.053 -0.016,0.79 0.581,5.954 0.774,7.048 0.101,0.589 0.555,2.868 1.009,3.465 0.295,0.404 0.825,0.37 1.262,0.101 2.355,-1.464 3.07,-6.544 3.247,-9.134 0.1,-1.573 0.159,-3.953 0.159,-3.953 0,0 2.7,0.084 4.365,0.042 1.615,-0.042 3.398,-0.303 5.08,-0.564 2.145,-0.344 6.333,-1.261 8.739,-2.481 1.976,-1.001 3.826,-2.682 4.424,-4.474 0.554,-1.64 0.471,-2.775 -0.379,-4.255 -0.95,-1.665 -2.759,-2.902 -4.584,-3.011 -0.546,-0.026 -2.599,0.243 -3.229,0.731 -0.244,0.194 -0.227,0.539 -0.051,0.782 0.059,0.093 1.026,0.597 1.59,0.892 0.286,0.151 0.521,0.32 0.74,0.513 0.462,0.421 0.891,0.883 0.849,1.413 -0.075,0.689 -0.807,1.119 -1.505,1.396 -3.28,1.304 -9.823,2.389 -12.986,2.574 -1.245,0.067 -3.002,0.126 -3.002,0.126 l 0.37,-17.469 c 0,0 1.455,-0.277 2.607,-0.462 0.656,-0.101 3.448,-0.345 4.188,-0.37 5.644,-0.143 11.952,0.353 17.133,2.8 2.27,1.077 4.356,2.406 5.937,4.206 2.086,2.388 3.179,5.66 2.885,9.074 -0.32,3.727 -2.944,8.15 -5.038,10.841 -5.525,7.124 -15.013,12.978 -23.364,16.409 -8.52,3.491 -16.939,5.518 -25.988,5.846 -2.33,0.092 -7.41,-0.034 -9.983,-0.732 -0.371,-0.11 -0.732,-0.236 -1.077,-0.311 -0.269,-0.068 -0.69,-0.244 -0.807,-0.337 -0.068,-0.059 -0.135,-0.118 -0.135,-0.118 0,0 0.16,-0.092 0.32,-0.159 0.26,-0.118 1.413,-0.194 2.001,-0.295 0.539,-0.101 1.085,-0.378 1.304,-0.774 0.21,-0.361 0.235,-0.656 -0.017,-0.967 -0.58,-0.706 -2.775,-0.588 -3.734,-0.429 -1.001,0.16 -2.254,0.463 -2.481,1.337 -0.269,1.027 0.219,2.036 0.748,2.961 1.06,1.876 2.582,2.843 4.803,3.448 3.162,0.867 7.149,1.472 10.126,1.59 6.762,0.261 13.145,-0.925 19.689,-2.91 3.742,-1.135 8.646,-3.028 12.229,-4.761 2.573,-1.244 6.635,-3.524 8.906,-5.02 0.723,-0.471 4.937,-3.567 5.585,-4.096 1.362,-1.127 3.145,-2.725 4.44,-4.004 2.49,-2.472 5.593,-6.265 7.107,-9.276 0.37,-0.723 0.648,-1.43 1.119,-2.271 0.159,-0.286 0.849,-1.993 0.958,-2.49 0.118,-0.496 0.286,-1.211 0.303,-1.236 0.034,-0.261 0.353,-1.741 0.337,-2.304 m -47.292,2.001 c 0,0 -2.582,-0.185 -4.357,-0.378 -2.262,-0.244 -6.501,-0.976 -8.957,-1.851 -0.732,-0.269 -2.22,-0.891 -2.355,-1.648 -0.134,-0.782 0.354,-1.396 0.892,-2.027 0.319,-0.37 2.085,-2.069 2.573,-2.489 2.086,-1.733 6.3,-4.407 9.412,-5.702 1.059,-0.446 2.825,-1.086 2.825,-1.086 0,0 -0.126,5.038 -0.109,9.984 0.017,2.607 0.076,5.197 0.076,5.197 m 53.692,6.174 c 0.101,-0.017 0.261,-0.068 0.395,-0.118 1.195,-0.454 1.682,-1.565 1.968,-2.767 0.69,-2.809 0.976,-9.025 1.085,-11.455 0.084,-1.825 0.135,-3.625 0.211,-5.425 0.067,-1.53 0.185,-3.566 -0.135,-4.995 -0.118,-0.514 -0.454,-1.111 -0.95,-1.431 -0.572,-0.353 -1.859,-0.378 -2.557,-0.235 -1.749,0.362 -2.313,1.48 -2.565,3.204 -0.589,4.113 -0.303,12.187 0.05,15.593 0.109,1.119 0.53,4.718 1.127,6.232 0.202,0.514 0.623,1.531 1.371,1.397 M -253.289,9.52 c 0,0 0.287,-0.496 0.505,-0.874 1.253,-2.086 3.264,-3.289 5.686,-3.415 2.472,-0.118 5.66,1.321 7.476,2.582 5.19,3.608 7.915,10.109 9.412,16.35 1.749,7.308 1.825,15.012 -0.269,22.094 -1.203,4.104 -3.566,9.243 -6.485,12.313 -0.875,0.917 -2.203,2.161 -2.59,2.666 -0.396,0.53 -0.488,0.976 0.117,1.321 0.631,0.37 2.027,-0.387 2.725,-0.808 3.415,-2.069 5.644,-4.138 7.662,-7.107 0.514,-0.757 2.557,-4.121 2.936,-4.827 2.287,-4.323 3.465,-8.1 4.096,-12.877 0.79,-6.081 0.285,-12.977 -1.817,-19.075 -0.917,-2.674 -2.338,-5.433 -3.819,-7.754 -0.344,-0.538 -2.497,-3.44 -2.775,-3.718 -0.732,-0.781 -2.565,-2.371 -3.423,-3.061 -4.272,-3.431 -8.898,-5.677 -13.97,-5.063 -2.784,0.345 -5.079,1.27 -7.308,3.087 -0.858,0.698 -2.305,2.17 -2.885,3.213 -0.379,0.664 -0.85,1.488 -0.908,1.496 -0.068,0.017 -0.312,-0.151 -0.589,-0.336 -0.227,-0.168 -1.237,-0.631 -1.766,-0.832 -3.482,-1.304 -7.376,-1.001 -10.564,1.076 -2.321,1.506 -4.289,4.357 -5.155,6.947 -1.279,3.827 -1.38,7.805 -0.858,11.884 0.883,6.922 3.381,13.482 7.098,19.285 2.338,3.658 5.383,7.275 9.016,9.866 0.404,0.294 2.624,1.581 3.07,1.791 0.824,0.379 1.909,0.74 2.54,0.067 0.328,-0.345 0.311,-0.63 0.076,-1.093 -0.387,-0.706 -1.371,-1.674 -1.918,-2.262 -0.471,-0.505 -3.146,-3.794 -3.701,-4.55 -0.605,-0.825 -3.322,-4.896 -3.675,-5.518 -3.431,-5.937 -6.156,-15.357 -5.896,-22.658 0.051,-1.496 0.278,-3.683 0.623,-5.096 0.454,-1.91 1.589,-4.491 3.288,-5.694 1.808,-1.27 3.465,-1.203 5.618,-0.353 0.572,0.235 1.38,0.605 1.38,0.605 0,0 -0.631,1.607 -1.035,2.809 -1.127,3.348 -1.581,8.688 -1.161,12.364 0.337,3.019 1.01,5.324 2.372,7.729 1.094,1.909 2.549,3.793 4.374,5.349 1.766,1.506 4.575,2.818 7.056,2.876 2.052,0.051 4.18,-0.841 5.265,-2.708 1.876,-3.255 1.993,-8.385 1.463,-11.775 -0.79,-5.113 -3.439,-9.916 -7.258,-13.17 -1.371,-1.169 -4.029,-3.146 -4.029,-3.146 m 5.139,22.296 c 0,0 -0.059,1.514 -0.185,2.364 -0.1,0.715 -0.252,1.253 -0.588,1.808 -0.379,0.597 -0.656,0.984 -1.253,1.068 -0.732,0.109 -1.127,-0.387 -1.582,-1.102 -0.597,-0.967 -1.194,-2.75 -1.556,-3.885 -0.513,-1.615 -0.723,-2.599 -1,-4.441 -0.455,-2.994 -0.909,-8.108 -0.421,-11.581 0.084,-0.605 0.236,-1.48 0.236,-1.48 0,0 0.723,0.815 1.253,1.387 0.227,0.252 1.303,1.85 1.396,2.019 0.185,0.328 0.681,1.177 0.757,1.354 0.101,0.185 0.874,1.85 1.017,2.237 0.261,0.74 0.631,1.884 0.925,2.801 0.682,2.111 0.564,2.893 1.001,5.231 0.059,0.277 0.093,2.22 0.051,2.22 h -0.051 m 26.905,-15.517 c 0,0 0.648,1.455 1.153,2.548 0.529,1.161 3.204,6.527 4.297,8.05 1.228,1.698 3.566,4.894 3.583,4.987 0.051,0.361 0.126,0.984 0.454,1.488 0.253,0.395 0.883,0.564 1.497,0.606 0.682,0.042 1.379,-0.471 1.691,-1.018 0.58,-1.068 1.589,-4.087 1.8,-4.81 1.177,-4.021 2.439,-11.531 2.851,-15.4 0.109,-1.001 0.445,-6.291 0.471,-7.468 0.025,-0.842 0,-2.221 -0.48,-2.91 -0.176,-0.253 -0.521,-0.48 -0.841,-0.463 -0.446,0.008 -1.337,0.63 -1.732,0.992 -1.077,1.027 -1.792,2.061 -2.027,3.323 -0.202,1.109 -0.471,4.272 -0.471,4.272 l -4.718,-0.185 -2.624,-0.051 c 0,0 -0.244,-0.605 -0.446,-1.118 -0.437,-1.093 -0.833,-2.187 -1.001,-2.801 -0.345,-1.228 -1.009,-3.675 -1.169,-4.062 -0.328,-0.799 -0.622,-1.27 -1.396,-1.371 -0.866,-0.117 -1.464,-0.176 -2.086,0.16 -1.177,0.648 -1.716,2.018 -1.918,3.423 -0.344,2.389 0.623,4.323 1.624,7.166 0.42,1.194 -0.16,1.598 -1.153,3.145 -0.126,0.202 -0.252,0.412 -0.286,0.564 -0.033,0.168 0.118,0.58 0.337,0.757 0.067,0.05 0.084,0.058 0.21,0.058 l 2.38,0.118 m 7.233,0.227 c 0,0 0.412,-0.008 0.833,0 1.354,0.017 3.608,0.269 3.608,0.269 0,0 -0.252,1.985 -0.454,3.263 -0.135,0.842 -0.253,1.363 -0.438,2.036 -0.075,0.303 -0.286,1.152 -0.504,1.488 -0.034,0.059 -0.093,0.135 -0.093,0.135 0,0 -1.093,-2.111 -1.699,-3.566 -0.487,-1.169 -0.731,-2.044 -1.068,-2.742 -0.084,-0.168 -0.176,-0.395 -0.185,-0.58 -0.008,-0.143 0,-0.303 0,-0.303 m 26.729,-2.473 c 0.05,-0.008 0.143,-0.033 0.227,-0.075 0.958,-0.42 0.958,-2.136 0.723,-2.952 -0.622,-2.12 -2.641,-4.323 -4.247,-5.408 -0.959,-0.648 -2.927,-1.556 -4.34,-1.825 -2.204,-0.421 -4.146,0.16 -5.324,1.942 -1.068,1.615 -1.539,3.609 -1.623,5.476 -0.244,5.382 1.455,13.238 3.541,17.729 0.286,0.605 1.665,3.415 2.952,3.869 1.27,0.446 1.833,-1.052 1.959,-2.179 0.16,-1.429 -0.294,-3.338 -0.656,-4.886 -0.647,-2.7 -1.564,-6.922 -1.783,-8.133 -0.227,-1.278 -0.765,-4.02 -0.572,-5.425 0.101,-0.731 0.236,-1.11 0.799,-1.068 0.261,0.034 3.878,1.682 5.846,2.423 0.74,0.277 1.657,0.58 2.498,0.512 m 19.806,16.275 c 0.824,-1.027 1.194,-2.237 1.287,-3.558 0.092,-1.346 -0.337,-2.624 -1.077,-3.641 -1.278,-1.742 -3.406,-2.599 -5.542,-2.759 -0.294,-0.026 -2.044,-0.076 -2.49,0.059 -0.075,0.025 -0.134,0.059 -0.176,0.05 -0.051,0 -0.337,-1.202 -0.395,-1.632 -0.194,-1.471 -0.421,-2.514 -0.598,-3.675 -0.134,-0.925 -0.235,-1.917 -0.319,-2.901 -0.488,-5.736 -0.32,-8.579 0.16,-14.197 0.025,-0.345 0.042,-0.732 0,-0.976 -0.127,-0.673 -0.539,-1.135 -1.195,-1.303 -1.985,-0.53 -3.877,1.438 -4.852,3.01 -2.263,3.659 -1.531,11.144 -0.875,14.853 0.269,1.523 0.967,4.92 1.446,6.157 0.261,0.656 0.673,1.951 0.648,2.01 -0.034,0.059 -1.068,0.462 -2.027,0.815 -0.353,0.135 -1.556,0.758 -2.06,1.077 -1.06,0.665 -1.783,1.203 -2.515,2.027 -0.219,0.252 -0.967,1.362 -1.068,1.606 -0.589,1.338 -0.631,2.507 -0.101,3.937 0.134,0.361 0.866,1.909 1.354,1.858 0.706,-0.059 0.555,-1.236 0.74,-1.833 0.059,-0.21 0.252,-0.555 0.412,-0.741 0.976,-1.151 4.247,-2.43 5.593,-2.825 0.185,-0.059 2.288,-0.699 2.59,-0.555 0.084,0.034 0.48,0.74 0.732,1.177 0.143,0.235 0.294,0.421 0.463,0.597 1.278,1.371 3.162,2.666 5.038,3.053 0.824,0.168 2.447,0.034 3.263,-0.437 0.185,-0.101 0.799,-0.345 1.564,-1.253 m -6.165,-3.65 c 1.405,0.084 2.28,0.159 3.381,0.63 0.606,0.261 1.312,0.85 0.967,1.565 -0.21,0.428 -0.958,0.58 -1.396,0.547 -1.471,-0.102 -2.54,-1.186 -3.036,-2.633 -0.017,-0.051 -0.017,-0.109 0.084,-0.109 m 80.976,6.98 c -0.227,-0.244 -0.471,-0.832 -0.723,-1.253 -0.135,-0.227 -0.387,-0.521 -0.547,-0.631 -0.58,-0.428 -1.068,-0.445 -1.623,0.042 -0.783,0.69 -1.237,1.767 -1.27,2.801 -0.009,0.463 0.059,0.959 -0.026,1.345 -0.143,0.64 -0.79,1.304 -1.135,1.926 -0.412,0.732 -0.749,1.994 -0.782,2.818 -0.143,2.557 1.203,4.912 2.952,6.77 1.775,1.876 4.079,3.44 6.585,4.5 2.372,1.001 5.846,1.682 8.444,0.782 0.85,-0.294 2.027,-1.017 2.624,-1.766 0.126,-0.16 0.227,-0.336 0.354,-0.412 0.117,-0.076 0.42,-0.101 0.664,-0.151 0.833,-0.144 2.027,-0.774 2.515,-1.195 0.975,-0.841 1.522,-1.648 1.766,-2.826 0.505,-2.363 -0.858,-4.953 -2.414,-6.534 -2.649,-2.709 -5.273,-4.618 -8.671,-5.955 -1.48,-0.58 -3.81,-1.127 -5.5,-0.967 -0.53,0.042 -1.068,0.176 -1.573,0.218 -0.261,0.017 -1.22,0.261 -1.321,0.337 -0.126,0.093 -0.285,0.185 -0.319,0.151 m 5.652,4.147 c 2.228,0.151 4.306,0.799 6.24,1.867 1.892,1.059 4.685,3.129 4.399,5.567 -0.084,0.791 -0.597,1.38 -1.253,1.666 -0.85,0.37 -1.287,0.303 -2.372,-0.009 -0.782,-0.235 -1.135,-0.378 -1.884,-0.807 -2.178,-1.262 -5.265,-3.97 -6.939,-6.131 -0.395,-0.505 -0.782,-1.085 -1.084,-1.472 -0.194,-0.236 -0.345,-0.454 -0.328,-0.513 0.067,-0.252 2.354,-0.227 3.221,-0.168 m -7.814,2.094 c 0,0 0.74,1.102 1.363,1.943 1.118,1.53 3.154,3.641 4.685,4.953 0.471,0.404 1.025,0.858 1.025,0.858 0,0 -0.866,-0.092 -1.353,-0.193 -1.17,-0.227 -2.868,-1.354 -3.718,-2.094 -1.413,-1.195 -2.96,-3.154 -2.254,-4.895 0.101,-0.244 0.252,-0.572 0.252,-0.572" style="fill:#000000;fill-opacity:1;fill-rule:nonzero;stroke:none" id="path22"></path></g><g id="g24" transform="translate(411.4236,67.9884)"><path d="m 0,0 c 3.749,11.124 7.119,20.189 9.823,29.449 2.098,7.188 7.547,6.777 12.942,6.593 5.654,-0.193 9.325,-2.84 9.821,-8.986 1.382,-17.123 2.747,-34.248 4.379,-51.348 0.463,-4.85 -0.998,-7.408 -5.997,-7.381 -4.825,0.027 -10.124,-0.244 -10.537,6.542 C 19.8,-14.753 19.529,-4.353 19.08,6.037 18.988,8.158 18.786,10.275 17.369,12.578 14.793,5.015 11.98,-2.479 9.726,-10.136 8.219,-15.253 4.822,-16.771 0.1,-16.777 c -4.729,-0.006 -8.114,1.534 -9.676,6.618 -2.378,7.736 -5.318,15.299 -9.22,22.987 -0.285,-4.7 -0.653,-9.397 -0.837,-14.101 -0.284,-7.23 -0.728,-14.472 -0.56,-21.697 0.132,-5.678 -1.135,-9.114 -7.754,-8.802 -7.113,0.336 -9.251,2.083 -8.878,9.515 0.848,16.934 2.101,33.847 2.914,50.782 0.266,5.555 4.232,6.58 8.126,7.423 6.902,1.494 13.057,-1.222 15.341,-6.842 2.8,-6.892 5.091,-13.992 7.596,-21.005 C -2.102,6.013 -1.376,3.916 0,0" style="fill:#000000;fill-opacity:1;fill-rule:nonzero;stroke:none" id="path26"></path></g><g id="g28" transform="translate(325.6265,85.9526)"><path d="M 0,0 C -0.546,0.05 -1.092,0.099 -1.638,0.149 -4.079,-7.193 -6.52,-14.535 -9.102,-22.299 H 6.425 C 4.193,-14.552 2.096,-7.276 0,0 m 30.626,-47.903 c -11.378,-6.006 -16.395,-4.086 -19.494,6.887 -1.128,3.991 -2.783,6.437 -7.375,5.739 -1.766,-0.268 -3.607,-0.015 -5.412,-0.045 -12.071,-0.199 -9.728,1.6 -12.937,-9.744 -1.572,-5.557 -5.032,-7.354 -11.432,-5.723 -5.449,1.388 -7.285,4.817 -5.49,10.192 5.778,17.303 11.477,34.632 17.388,51.888 0.576,1.68 2.127,3.507 3.708,4.284 10.852,5.331 21.281,1.057 24.863,-10.334 5.528,-17.583 10.753,-35.262 16.181,-53.144" style="fill:#000000;fill-opacity:1;fill-rule:nonzero;stroke:none" id="path30"></path></g><g id="g32" transform="translate(507.1284,63.7386)"><path d="M 0,0 C -2.288,7.868 -4.419,15.194 -6.549,22.519 -7.069,22.468 -7.589,22.417 -8.108,22.366 -10.527,14.997 -12.945,7.628 -15.448,0 Z m 24.095,-25.229 c -9.845,-6.76 -16.453,-4.686 -19.229,5.825 -1.225,4.64 -3.16,7.176 -8.26,6.338 -1.539,-0.252 -3.154,-0.018 -4.734,-0.041 -11.991,-0.177 -9.667,1.527 -12.895,-9.821 -1.553,-5.458 -5.165,-7.27 -11.489,-5.63 -5.047,1.308 -7.249,4.516 -5.574,9.61 5.837,17.752 11.763,35.475 17.78,53.166 0.45,1.324 1.664,2.702 2.894,3.397 10.02,5.663 21.834,1.252 25.228,-9.571 5.579,-17.792 10.912,-35.662 16.279,-53.273" style="fill:#000000;fill-opacity:1;fill-rule:nonzero;stroke:none" id="path34"></path></g><g id="g36" transform="translate(251.7049,90.0126)"><path d="m 0,0 v -15.207 c 6.784,0 13.292,-0.198 19.781,0.069 4.371,0.179 6.257,-1.584 6.241,-5.835 -0.015,-4.286 -1.716,-6.947 -6.346,-6.957 -6.302,-0.015 -12.604,-0.004 -19.888,-0.004 0,-6.447 -0.281,-12.472 0.086,-18.456 0.309,-5.03 -0.978,-7.665 -6.579,-7.41 -5.335,0.243 -10.23,0.475 -10.226,7.642 0.004,10.172 -0.032,20.345 -0.039,30.517 -0.005,6.103 -0.097,12.209 0.044,18.31 0.169,7.32 2.961,9.985 10.48,10.044 9.946,0.079 19.898,-0.162 29.838,0.104 4.377,0.117 6.205,-1.501 6.253,-5.767 C 29.692,2.831 28.471,-0.037 23.611,-0.011 15.96,0.03 8.309,0 0,0" style="fill:#000000;fill-opacity:1;fill-rule:nonzero;stroke:none" id="path38"></path></g><g id="g40" transform="translate(104.8284,236.4225)"><path d="m 0,0 c 3.514,-7.028 1.758,-16.691 -3.806,-22.546 13.177,-1.465 26.061,-9.957 30.745,-23.134 1.758,-4.684 2.635,-10.833 1.758,-16.103 h 1.756 c 0.294,4.684 0.879,9.663 5.27,12.298 1.758,0.585 3.222,0.585 4.687,-0.585 3.806,-2.638 4.099,-6.737 3.22,-11.713 -0.294,-2.344 -2.343,-4.393 -2.635,-6.736 2.635,-6.441 -1.173,-12.884 -5.564,-17.569 l -4.099,-3.514 c 8.49,0.586 16.691,2.344 25.181,3.806 0.879,2.637 2.344,5.857 5.272,7.028 2.05,0.586 3.512,0.879 4.977,0.294 0.293,3.805 3.808,7.028 7.613,7.905 1.758,0.879 4.393,0.879 4.1,3.222 0,3.806 -2.927,9.077 0.587,12.298 2.049,1.756 4.391,1.756 6.734,0.879 2.341,-0.879 4.099,-2.637 5.564,-4.687 1.464,-2.341 1.464,-4.099 0.877,-7.319 -0.877,-1.464 -1.756,-2.929 -2.927,-4.393 3.22,-2.635 7.613,-9.955 7.613,-9.955 0,0 4.685,-4.393 5.856,-5.564 6.734,-5.563 9.956,-12.297 8.198,-15.52 -0.291,-0.585 -0.585,-1.464 -0.585,-1.464 0,0 1.758,-4.1 -0.292,-6.441 -0.293,-0.585 -0.879,-1.171 -2.343,-1.464 -0.879,-0.294 -1.171,0 -1.171,0 -0.587,-1.758 -2.343,-3.221 -3.807,-3.514 -4.979,-1.171 -8.784,5.27 -11.713,7.907 -6.443,4.976 -13.762,3.22 -19.032,9.663 -2.05,-1.758 -3.514,-2.929 -7.322,-2.344 -1.756,0.586 -2.927,1.756 -4.391,2.636 -8.786,-1.756 -17.57,-3.515 -26.647,-5.27 9.956,-8.493 24.304,-12.007 24.597,-32.503 0,-2.929 -1.172,-6.443 -3.222,-11.422 -0.292,-0.585 -2.05,-3.511 -2.05,-3.511 0,0 0.294,-9.078 -0.291,-13.471 -2.929,-1.756 -5.858,-2.635 -9.078,-3.806 l -7.028,-14.641 c 1.758,-0.879 2.635,-1.758 3.808,-3.807 9.663,2.928 25.181,7.321 31.915,-1.463 3.514,-4.687 4.1,-9.077 3.223,-14.935 -2.929,-11.127 -13.471,-19.032 -30.747,-21.375 -17.568,-1.756 -37.481,6.148 -39.531,14.055 -1.462,4.685 -0.586,8.491 1.464,12.005 1.465,3.222 6.149,6.442 6.149,6.442 0,0 -0.585,1.171 0.294,3.515 0.879,2.634 5.563,4.978 8.784,5.855 2.343,4.393 5.272,9.077 7.322,13.762 -1.465,0.879 -2.929,0.879 -3.808,2.637 0.294,2.049 2.635,4.391 0.585,6.149 -2.635,0.585 -4.976,-0.879 -7.613,-1.758 -1.171,-7.32 -9.955,-7.028 -15.812,-8.49 h -7.028 l -13.762,-15.227 c 2.343,-1.172 4.099,-3.514 4.099,-5.857 0,-1.756 -0.292,-3.221 -1.462,-4.1 6.44,-4.391 14.933,-7.613 16.689,-15.811 1.464,-6.149 0.293,-12.884 -4.685,-17.277 -11.713,-10.542 -31.624,-12.004 -45.972,-5.855 -6.442,3.514 -12.591,9.955 -12.006,17.568 0.585,9.663 7.322,18.447 16.106,22.84 0,2.049 0.585,3.805 2.049,5.27 2.635,2.343 5.856,3.222 9.078,3.807 5.564,8.199 12.883,14.933 18.153,23.132 v 2.343 c 4.687,5.564 10.542,10.542 12.886,17.277 -6.443,-1.465 -12.298,-6.443 -17.57,-10.834 -11.713,-10.25 -22.255,-22.548 -35.43,-29.576 -3.808,-1.756 -7.322,-3.512 -12.006,-4.099 -5.27,-0.586 -9.957,0.587 -12.298,4.978 3.514,-3.514 8.784,-4.685 13.762,-3.806 16.106,3.22 30.745,21.082 44.801,33.965 5.564,4.979 12.006,9.372 18.741,12.592 -0.294,6.149 0.585,12.298 4.099,16.984 -2.05,5.27 -6.443,10.249 -11.421,14.055 -15.518,1.464 -30.451,2.928 -46.557,3.514 -2.05,-2.636 -4.978,-4.394 -8.199,-3.806 l -0.293,0.292 c -7.32,-4.685 -14.348,-11.128 -19.911,-18.741 -1.756,-1.756 -3.221,-3.514 -6.149,-3.514 -2.344,-0.585 -4.979,2.343 -4.979,2.343 0,0 -0.879,-1.171 -2.635,-1.171 -2.049,0 -3.514,1.171 -4.684,2.927 -1.465,2.343 0.291,7.322 0.291,7.322 0,0 -0.585,0.879 -1.17,2.049 v 3.932 c 1.186,9.142 10.484,15.317 14.347,23.3 1.465,3.807 5.272,7.321 3.514,11.712 -1.756,4.393 -2.341,10.25 0.294,14.35 2.05,2.634 4.684,3.22 7.319,3.805 -2.049,5.858 -1.755,13.471 1.465,18.741 4.684,7.613 13.177,10.833 21.669,9.369 7.32,-1.464 14.054,-8.784 15.518,-16.103 2.929,6.734 8.199,13.762 14.933,18.153 -5.27,1.758 -11.419,4.687 -14.347,10.542 -2.929,6.442 -3.221,16.105 1.758,21.961 2.781,3.514 6.368,5.857 10.358,7.028 h 12.773 C -9.369,10.249 -2.635,6.149 0,0" style="fill:#2d2d2c;fill-opacity:1;fill-rule:evenodd;stroke:none" id="path42"></path></g><g id="g44" transform="translate(121.2257,194.5503)"><path d="M 0,0 V 8.199 C 0.879,7.028 3.514,5.564 2.05,3.806 2.05,3.221 1.758,2.635 2.343,2.635 l 1.171,1.756 c 6.149,-6.441 7.907,-15.518 7.028,-24.302 l -1.464,-0.587 c 0.879,4.101 1.17,9.371 -0.586,13.762 -0.879,1.464 -1.464,3.222 -2.928,4.101 -1.756,0.585 -2.635,-1.173 -2.635,-2.343 0.293,-6.149 -0.879,-12.883 2.049,-17.57 -2.341,-2.342 -5.27,-4.685 -6.442,-7.905 4.393,4.685 9.077,8.784 15.814,8.492 0.291,-2.343 2.049,-4.686 4.099,-5.857 1.756,-0.294 3.514,-0.294 4.685,0.585 1.756,-4.684 -0.586,-9.369 -2.929,-13.177 -7.028,-7.32 -15.518,-11.712 -26.06,-9.663 -11.128,2.637 -21.084,13.763 -23.719,24.89 0,0 -0.586,1.172 0,1.464 1.464,0.585 3.514,-1.171 4.684,-2.635 -0.585,1.756 -0.585,1.756 -1.17,2.343 -1.171,1.757 -4.1,2.927 -7.028,2.05 -1.171,-0.879 -2.342,-1.758 -3.221,-3.514 1.465,0.585 2.635,1.756 4.393,1.756 6.735,-9.078 -4.099,-26.939 10.249,-31.038 4.391,0 7.028,5.27 11.712,4.393 l 4.1,-1.173 -2.344,-1.171 -0.585,0.879 c -5.564,-2.928 -12.006,-9.957 -18.741,-4.393 -4.391,3.222 -4.391,8.492 -7.319,12.592 0,-1.756 0.291,-3.806 0.879,-5.564 -8.786,3.221 -16.985,10.834 -20.205,19.911 -1.171,6.149 1.464,11.713 6.44,15.521 6.737,3.805 15.227,2.927 21.085,-1.758 2.343,-1.756 4.392,-3.806 6.734,-4.978 -5.564,9.077 -9.955,22.84 -3.221,33.381 1.465,1.756 4.1,3.221 5.564,3.221 C -9.369,15.227 -2.927,7.32 0,0" style="fill:#ffffff;fill-opacity:1;fill-rule:evenodd;stroke:none" id="path46"></path></g><g id="g48" transform="translate(111.8563,203.6281)"><path d="m 0,0 c -1.464,1.756 -2.343,2.341 -3.808,1.462 -1.756,-0.877 -2.635,-2.926 -2.049,-6.441 -1.171,2.05 -0.292,5.564 0.879,7.029 0.879,1.17 2.343,0.877 3.514,0.291 C -0.879,1.756 -0.294,0.877 0,0" style="fill:#2d2d2c;fill-opacity:1;fill-rule:evenodd;stroke:none" id="path50"></path></g><g id="g52" transform="translate(128.5473,181.3732)"><path d="m 0,0 c -0.294,0.586 -1.464,0.879 -2.05,0.586 0,0 -1.172,-0.586 -0.879,-0.88 0,0 -1.756,10.249 0,9.663 2.05,0.294 2.635,-2.049 3.221,-3.22 C 1.171,2.342 2.05,0 1.171,-4.684 1.171,-2.928 0.877,-1.464 0,0" style="fill:#ffffff;fill-opacity:1;fill-rule:evenodd;stroke:none" id="path54"></path></g><g id="g56" transform="translate(143.4802,180.4944)"><path d="m 0,0 c 0,-3.514 -2.05,-7.613 -3.514,-7.613 -1.464,0.293 -1.464,4.978 -0.879,7.321 0.294,1.463 0.879,2.635 2.637,2.635 0,0 1.756,0 1.756,-2.343" style="fill:#ffffff;fill-opacity:1;fill-rule:evenodd;stroke:none" id="path58"></path></g><g id="g60" transform="translate(85.7961,143.6004)"><path d="m 0,0 c -12.592,1.756 -25.769,2.635 -38.067,5.564 -2.049,2.926 -5.272,4.685 -9.077,4.099 0,4.391 -4.685,7.32 -8.199,9.076 -1.464,1.172 0,3.222 0.292,4.393 6.151,-5.27 16.105,-7.32 23.427,-3.221 3.806,1.465 7.026,5.271 8.784,8.491 C -21.376,16.104 -11.421,4.391 0,0" style="fill:#ffffff;fill-opacity:1;fill-rule:evenodd;stroke:none" id="path62"></path></g><g id="g64" transform="translate(194.7237,150.041)"><path d="m 0,0 c -2.05,3.514 -4.099,3.808 -8.784,4.393 -2.929,0 -6.151,-1.171 -7.322,-2.635 0.586,2.342 5.272,3.806 7.028,3.806 C -4.978,5.272 -2.05,4.1 0,0" style="fill:#2d2d2c;fill-opacity:1;fill-rule:evenodd;stroke:none" id="path66"></path></g><g id="g68" transform="translate(97.5088,150.3348)"><path d="m 0,0 c 1.464,-1.758 0,-4.978 0.585,-6.734 0.879,1.17 0.879,2.926 0.879,4.391 1.462,0 2.635,-1.171 3.22,-2.341 0.88,-1.173 0.88,-2.929 -0.293,-4.1 -0.877,-0.879 -2.927,-0.587 -4.099,0 -4.1,2.635 -5.564,7.32 -4.685,12.298 C -2.343,3.514 -0.585,1.756 0,0" style="fill:#ffffff;fill-opacity:1;fill-rule:evenodd;stroke:none" id="path70"></path></g><g id="g72" transform="translate(214.3414,131.0087)"><path d="m 0,0 c 0.879,-2.928 -2.341,-4.393 -2.927,-2.928 -0.293,0.879 -0.587,1.757 -1.172,2.634 -1.756,3.808 -8.199,9.957 -8.199,9.957 l 0.294,2.929 v 2.926 C -6.734,12.884 -1.756,8.199 0,0" style="fill:#ffffff;fill-opacity:1;fill-rule:evenodd;stroke:none" id="path74"></path></g><g id="g76" transform="translate(14.3476,124.5665)"><path d="m 0,0 c -3.806,-2.929 -7.32,-7.905 -6.441,-13.177 -0.879,-0.877 -2.343,-0.585 -3.222,-0.292 -2.05,0.877 -2.635,2.635 -2.635,4.685 0,3.22 4.099,9.663 4.685,9.663 0.585,0.293 2.049,5.27 6.442,9.078 C -0.585,7.321 0.294,4.684 1.758,2.05 1.173,1.464 0.879,0.585 0,0" style="fill:#ffffff;fill-opacity:1;fill-rule:evenodd;stroke:none" id="path78"></path></g><g id="g80" transform="translate(157.5361,115.1972)"><path d="m 0,0 c 4.391,-9.663 4.099,-16.985 -1.173,-26.354 -1.756,-2.635 -2.341,-3.806 -4.684,-6.149 l -1.756,-1.465 c 2.049,1.171 4.099,2.05 5.564,3.808 0.876,-3.222 1.17,-7.322 0,-10.542 -6.443,-3.514 -14.936,-6.442 -22.549,-2.929 -2.341,1.759 1.758,4.1 0,6.443 1.758,0.292 3.223,-0.294 4.978,-0.585 -1.17,1.171 -2.635,1.171 -3.805,1.756 4.099,0.294 8.49,-0.294 11.713,2.049 -5.564,-2.049 -14.35,0.88 -21.376,-2.634 0.585,2.928 2.05,5.855 5.27,7.028 -4.685,-0.294 -6.735,-6.149 -8.199,-10.249 -7.613,8.199 -21.084,5.562 -30.747,3.221 4.687,5.27 11.713,11.712 12.592,19.617 -0.585,9.957 2.635,19.034 11.421,24.305 9.663,4.099 22.546,9.077 33.088,2.928 C -5.857,7.613 -2.049,4.099 0,0" style="fill:#e52d24;fill-opacity:1;fill-rule:evenodd;stroke:none" id="path82"></path></g><g id="g84" transform="translate(139.9663,116.3679)"><path d="m 0,0 c 2.05,-3.806 1.758,-9.955 -0.585,-13.469 -1.171,-1.758 -3.221,-2.637 -4.979,-1.758 -4.684,2.929 -5.563,8.784 -4.391,13.763 0.877,2.343 2.05,5.563 4.977,5.563 C -2.635,4.099 -0.879,1.758 0,0" style="fill:#2d2d2c;fill-opacity:1;fill-rule:evenodd;stroke:none" id="path86"></path></g><g id="g88" transform="translate(156.9508,109.6335)"><path d="M 0,0 C 0.292,-1.758 0.292,-3.808 -0.587,-5.858 -1.173,-6.735 -1.464,-7.613 -3.222,-7.322 -6.151,-5.858 -7.907,0 -7.907,3.22 -8.201,6.442 -7.322,9.078 -5.564,9.663 -2.637,10.248 -0.587,4.393 0,0" style="fill:#2d2d2c;fill-opacity:1;fill-rule:evenodd;stroke:none" id="path90"></path></g><g id="g92" transform="translate(139.6745,115.1972)"><path d="m 0,0 c 1.462,-3.808 1.171,-9.078 -1.173,-12.298 -0.877,-0.879 -2.341,-1.758 -3.514,-1.173 -4.099,2.929 -4.099,8.492 -3.514,12.885 0.588,1.757 2.052,4.685 3.514,4.685 C -2.343,4.099 -0.879,2.049 0,0" style="fill:#ffffff;fill-opacity:1;fill-rule:evenodd;stroke:none" id="path94"></path></g><g id="g96" transform="translate(156.3635,109.0479)"><path d="M 0,0 C 0.294,-1.173 0.294,-2.05 0,-3.222 -0.292,-3.807 -0.292,-5.272 -1.462,-5.857 -3.806,-6.736 -6.149,0.877 -6.441,4.391 -6.734,6.734 -5.855,9.663 -4.685,9.663 -2.341,9.663 -0.585,4.1 0,0" style="fill:#ffffff;fill-opacity:1;fill-rule:evenodd;stroke:none" id="path98"></path></g><g id="g100" transform="translate(120.3486,74.787)"><path d="m 0,0 c 0.877,-2.049 -1.758,-2.635 -2.929,-3.22 -4.978,-1.464 -9.663,-2.635 -15.226,-2.05 l 7.905,9.369 C -6.443,4.099 -2.343,3.222 0,0" style="fill:#e52d24;fill-opacity:1;fill-rule:evenodd;stroke:none" id="path102"></path></g><g id="g104" transform="translate(175.9831,48.1416)"><path d="m 0,0 c 3.22,-3.514 3.22,-9.663 2.05,-14.056 -4.685,-12.883 -18.156,-17.568 -30.745,-18.447 -16.985,-1.171 -30.453,6.443 -33.967,10.834 -1.758,2.343 -2.636,5.563 -1.758,8.786 1.172,5.563 6.736,8.784 6.736,8.784 0,0 0.585,-2.05 4.684,-3.806 2.342,-1.173 4.685,-0.587 4.685,-0.587 0,0 -6.442,2.343 -7.32,5.857 -0.587,1.756 0,3.806 1.171,5.27 1.171,1.173 2.929,2.05 4.393,2.635 l -1.172,-2.927 c -0.292,-1.172 -0.586,-0.293 -0.878,0.585 -0.293,-1.464 0.292,-2.049 0.586,-2.928 2.05,-2.343 7.319,-3.221 10.54,-2.343 1.464,0.587 3.222,1.758 3.807,2.928 l -0.879,-0.291 2.635,4.976 c 1.758,-0.585 2.929,-2.049 3.223,-3.806 0.585,-1.758 -0.294,-4.099 -0.879,-5.27 -1.758,-3.807 -8.784,-4.978 -8.784,-4.978 0,0 4.099,-1.171 8.49,1.756 2.343,2.343 3.514,4.685 3.223,8.786 C -20.79,4.099 -7.613,9.663 0,0" style="fill:#ffffff;fill-opacity:1;fill-rule:evenodd;stroke:none" id="path106"></path></g><g id="g108" transform="translate(84.9172,49.606)"><path d="m 0,0 c 0.585,1.17 1.171,1.756 2.05,0.879 1.755,-1.465 2.343,-3.514 1.755,-5.564 -1.462,-4.099 -5.855,-4.685 -8.783,-6.149 2.635,-0.293 5.272,0.877 7.907,2.05 6.44,-3.222 15.518,-7.028 16.691,-15.521 0.585,-6.148 -1.173,-12.297 -6.737,-15.811 -11.127,-7.32 -27.816,-9.078 -40.408,-4.1 -5.563,2.635 -12.591,9.078 -12.006,16.106 0.879,8.49 5.564,16.397 14.348,20.79 2.637,-4.393 7.613,-4.978 12.3,-4.393 l 0.585,0.294 c -4.099,0.585 -9.371,0.585 -11.127,5.27 -0.294,2.049 0.291,3.806 1.756,4.978 1.464,1.171 3.222,2.05 5.272,2.341 l -1.465,-2.634 -0.585,0.878 c -0.294,-1.757 0.585,-2.634 2.05,-3.514 11.712,-3.22 16.982,3.221 16.982,3.221 0,0 -1.17,-0.292 -0.585,0.879" style="fill:#ffffff;fill-opacity:1;fill-rule:evenodd;stroke:none" id="path110"></path></g><g id="g112" transform="translate(92.2367,33.7938)"><path d="m 0,0 c -2.927,1.464 -7.32,2.05 -11.419,1.756 -7.322,-0.585 -14.056,-2.341 -20.205,-5.855 4.685,4.978 11.421,5.855 18.155,6.734 C -8.49,2.929 -3.806,2.342 0,0" style="fill:#2d2d2c;fill-opacity:1;fill-rule:evenodd;stroke:none" id="path114"></path></g><g id="g116" transform="translate(114.1996,170.5396)"><path d="m 0,0 c 2.927,0 5.562,5.562 5.27,12.59 0,7.028 -2.635,12.592 -5.857,12.298 -3.221,0 -5.564,-5.562 -5.564,-12.59 C -5.857,5.562 -3.222,0 0,0" style="fill:#2d2d2c;fill-opacity:1;fill-rule:evenodd;stroke:none" id="path118"></path></g><g id="g120" transform="translate(116.8346,191.3281)"><path d="m 0,0 c 1.756,-4.685 2.05,-11.419 0.292,-16.104 -0.292,2.929 -1.171,6.735 -4.1,7.028 -2.049,-0.293 -2.928,-1.172 -3.514,-2.343 -0.291,5.27 -0.291,12.883 3.514,14.641 C -1.758,3.514 -0.879,1.173 0,0" style="fill:#ffffff;fill-opacity:1;fill-rule:evenodd;stroke:none" id="path122"></path></g><g id="g124" transform="translate(200.2874,140.3782)"><path d="m 0,0 c -0.294,0.585 -1.758,1.464 -1.758,1.464 l 1.173,-0.291 c 0,0 0.291,0 0.585,-0.294 0.585,2.635 0.585,4.393 0.585,4.393 -0.293,5.564 -1.758,7.026 -2.928,9.663 C 0,12.885 0.877,10.248 2.05,7.613 7.613,4.099 10.834,1.758 14.054,-5.564 c 0,0 0.587,0.588 0.587,1.173 0.292,3.22 -1.464,5.855 -2.637,7.613 -1.17,2.05 -7.319,8.199 -11.712,11.713 -2.927,2.927 -3.514,8.199 -7.614,9.37 -0.877,0 -1.462,-1.465 -1.462,-1.465 0,0 0.292,1.465 0.585,2.05 2.05,2.635 5.856,5.563 2.927,10.248 -1.171,2.05 -3.22,4.393 -5.564,5.272 -1.756,0.877 -4.099,0.585 -5.561,-1.465 -1.758,-3.222 0.877,-7.321 0.877,-10.541 -0.586,-1.465 -1.171,-2.05 -2.927,-3.221 -2.929,-1.758 -6.443,-2.343 -7.907,-6.149 -2.05,-3.513 3.514,-2.343 3.806,-7.613 -1.756,3.806 -5.562,5.27 -9.663,4.391 -1.756,-0.877 -3.806,-2.05 -4.1,-4.976 0.588,0.291 1.173,0.585 1.758,0.585 2.342,0.877 4.391,-0.879 5.564,-2.635 0.585,-2.05 0.585,-4.101 0,-6.151 -0.879,-1.756 -2.343,-2.341 -4.099,-2.926 2.341,-1.465 5.563,-1.173 7.613,-0.294 2.927,1.758 4.099,4.978 4.685,7.613 0.879,-2.343 -0.294,-4.685 -1.465,-6.734 5.858,-6.149 14.348,-5.27 20.497,-11.128 2.635,-2.343 5.272,-7.027 9.078,-6.149 0.585,0.586 1.464,0.879 1.757,1.756 2.05,3.808 -2.636,9.372 -7.906,14.642 C 0.585,-2.05 -0.585,-4.684 -1.758,-4.976 -0.585,-3.514 0,-1.756 0,0" style="fill:#ffffff;fill-opacity:1;fill-rule:evenodd;stroke:none" id="path126"></path></g><g id="g128" transform="translate(12.8832,135.987)"><path d="m 0,0 v 0 c -3.805,-3.807 -4.976,-6.443 -6.441,-8.786 -0.293,-0.585 -2.343,-2.635 -4.099,-6.734 -1.758,6.149 2.341,11.421 5.564,16.397 5.27,6.149 9.076,12.886 12.004,19.913 -0.292,5.562 -4.099,12.299 0,17.275 2.635,2.637 7.907,3.514 9.957,0 1.464,-4.976 -4.1,-9.076 0,-13.175 3.514,-2.05 7.613,-5.564 7.028,-10.25 C 18.449,15.812 13.762,11.713 10.836,7.026 10.248,6.149 9.957,4.685 9.371,3.514 c 3.514,4.099 7.905,11.419 14.642,9.663 2.926,-1.464 4.976,-3.807 5.855,-7.028 0.585,3.806 -2.343,6.441 -4.393,8.784 0.879,1.171 2.637,0.879 3.808,0.294 1.756,-0.587 6.442,-3.808 6.149,-9.078 0,-3.807 -0.586,-7.907 -4.393,-10.248 -1.171,-0.294 -2.342,-0.587 -3.806,-0.587 1.756,2.928 4.685,5.857 3.22,9.371 C 28.697,-4.393 20.205,-7.907 13.471,-13.762 8.492,-18.155 3.514,-28.403 -1.756,-26.354 c -1.758,1.171 -2.343,2.342 -2.049,4.979 0.291,2.926 2.341,6.149 4.978,8.198 1.756,1.171 2.049,1.756 2.927,2.929 0.878,-0.588 1.464,-1.464 2.343,-1.464 0,0 -0.585,0.585 -1.171,1.17 -0.294,0.294 -0.585,0.586 -0.585,0.879 0,0 -0.294,0.292 0,0.586 l 0.291,0.878 C 4.687,-8.786 4.393,-8.492 4.1,-8.786 -0.292,-2.637 0.879,3.221 1.173,4.1 1.464,4.977 2.05,7.32 2.929,8.784 3.514,9.663 2.343,8.199 2.05,7.613 0.294,4.1 0,2.05 0,0" style="fill:#ffffff;fill-opacity:1;fill-rule:evenodd;stroke:none" id="path130"></path></g></g></g></g></svg>